# AST/ASF file generated using VICON BodyLanguage
# -----------------------------------------------
:version 1.10
:name VICON
:units
  mass 1.0
  length 0.45
  angle deg
:documentation
   .ast/.asf automatically generated from VICON data using
   VICON BodyBuilder and BodyLanguage model FoxedUp or BRILLIANT.MOD
:root
   order TX TY TZ RX RY RZ
   axis XYZ
   position 0 0 0  
   orientation 0 0 0 
:bonedata
  begin
     id 1 
     name lhipjoint
     direction 0.560651 -0.75055 0.34978 
     length 2.44936 
     axis 0 0 0  XYZ
  end
  begin
     id 2 
     name lfemur
     direction 0.34202 -0.939693 0  
     length 7.42139  
     axis 0 0 20  XYZ
    dof rx ry rz
    limits (-160.0 20.0)
           (-70.0 70.0)
           (-60.0 70.0)
  end
  begin
     id 3 
     name ltibia
     direction 0.34202 -0.939693 0   
     length 7.75674   
     axis 0 0 20   XYZ
    dof rx
    limits (-10.0 170.0)
  end
  begin
     id 4 
     name lfoot
     direction 0.0925879 -0.254383 0.962661   
     length 2.38688   
     axis -90 7.62852e-016 20   XYZ
    dof rx rz
    limits (-45.0 90.0)
           (-70.0 20.0)
  end
  begin
     id 5 
     name ltoes
     direction 1.53567e-011 -4.21973e-011 1   
     length 1.19228   
     axis -90 7.62852e-016 20   XYZ
    dof rx
    limits (-90.0 20.0)
  end
  begin
     id 6 
     name rhipjoint
     direction -0.540087 -0.762838 0.355506   
     length 2.4099  
     axis 0 0 0  XYZ 
  end
  begin
     id 7 
     name rfemur
     direction -0.34202 -0.939693 0   
     length 7.70794   
     axis 0 0 -20   XYZ
    dof rx ry rz
    limits (-160.0 20.0)
           (-70.0 70.0)
           (-70.0 60.0)
  end
  begin
     id 8 
     name rtibia
     direction -0.34202 -0.939693 0   
     length 7.66106   
     axis 0 0 -20   XYZ
    dof rx
    limits (-10.0 170.0)
 end
 begin
     id 9 
     name rfoot
     direction -0.0830975 -0.228308 0.970036   
     length 2.4989  
     axis -90 -7.62852e-016 -20   XYZ
    dof rx rz
    limits (-45.0 90.0)
           (-20.0 70.0)
  end
  begin
     id 10 
     name rtoes
     direction -1.53517e-011 -4.21842e-011 1   
     length 1.2498   
     axis -90 -7.62852e-016 -20   XYZ
    dof rx
    limits (-90.0 20.0)
  end
  begin
     id 11 
     name lowerback
     direction 0.0266356 0.99402 -0.105896   
     length 2.1545   
     axis 0 0 0   XYZ
    dof rx ry rz
    limits (-20.0 45.0)
           (-30.0 30.0)
           (-30.0 30.0)
  end
  begin
     id 12 
     name upperback
     direction 0.0130547 0.999192 0.0380027   
     length 2.1434   
     axis 0 0 0   XYZ
    dof rx ry rz
    limits (-20.0 45.0)
           (-30.0 30.0)
           (-30.0 30.0)
  end
  begin
     id 13 
     name thorax
     direction 0.000590299 0.996288 0.0860764   
     length 2.19049   
     axis 0 0 0   XYZ
    dof rx ry rz
    limits (-20.0 45.0)
           (-30.0 30.0)
           (-30.0 30.0)
  end
  begin
     id 14 
     name lowerneck
     direction -0.0432125 0.978219 0.203028   
     length 1.62441   
     axis 0 0 0   XYZ
    dof rx ry rz
    limits (-20.0 45.0)
           (-30.0 30.0)
           (-30.0 30.0)
  end
  begin
     id 15 
     name upperneck
     direction -0.0192309 0.991699 -0.127138   
     length 1.66666   
     axis 0 0 0   XYZ
    dof rx ry rz
    limits (-20.0 45.0)
           (-30.0 30.0)
           (-30.0 30.0)
  end
  begin
     id 16
     name head
     direction -0.00434499 0.997882 -0.0649107  
     length 1.67142  
     axis 0 0 0   XYZ
    dof rx ry rz
    limits (-20.0 45.0)
           (-30.0 30.0)
           (-30.0 30.0)
  end
  begin
     id 17 
     name lclavicle
     direction 0.970351 0.240904 -0.0196058  
     length 4.04862  
     axis 0 0 0   XYZ
    dof ry rz
    limits (-20.0 10.0)
           (0.0 20.0)
  end
  begin
     id 18 
     name lhumerus
     direction 1 -4.4896e-011 -1.40911e-018   
     length 5.58345   
     axis 180 -30 -90   XYZ
    dof rx ry rz
    limits (-60.0 90.0)
           (-90.0 90.0)
           (-90.0 90.0)
  end
  begin
     id 19
     name lradius
     direction 1 -4.48968e-011 5.88912e-028   
     length 3.71087   
     axis 180 -30 -90   XYZ
    dof rx
    limits (-10.0 170.0)
  end
  begin
     id 20
     name lwrist
     direction 1 -4.48955e-011 -8.83775e-028   
     length 1.85544   
     axis 5.52448e-016 90 90   XYZ
    dof ry
    limits (-180.0 0.0)
 end
  begin
     id 21 
     name lhand
     direction 1 -4.49035e-011 -1.76755e-027   
     length 0.562322   
     axis 1.12785e-015 90 90   XYZ
    dof rx rz
    limits (-90.0 90.0)
           (-45.0 45.0)
  end
  begin
     id 22 
     name lfingers
     direction 1 -4.48824e-011 -3.5351e-027   
     length 0.453359   
     axis 2.2557e-015 90 90   XYZ
    dof rx
    limits (0.0 90.0)
  end
  begin
     id 23
     name lthumb
     direction 0.707107 -6.34888e-011 0.707107   
     length 0.650935   
     axis -90 45 2.85299e-015   XYZ
    dof rx rz
    limits (-45.0 45.0)
           (-45.0 45.0)
  end
  begin
     id 24 
     name rclavicle
     direction -0.96165 0.268562 -0.0557131   
     length 4.05446  
     axis 0 0 0   XYZ 
    dof ry rz
    limits (-10.0 20.0)
           (-20.0 0.0)
  end
  begin
     id 25 
     name rhumerus
     direction -1 -4.48957e-011 -3.36329e-027  
     length 5.20357   
     axis 180 30 90   XYZ
    dof rx ry rz
    limits (-90.0 60.0)
           (-90.0 90.0)
           (-90.0 90.0)
  end
  begin
     id 26 
     name rradius
     direction -1 -4.48974e-011 4.51441e-027   
     length 3.64937   
     axis 180 30 90   XYZ
    dof rx
    limits (-10.0 170.0)
  end
  begin
     id 27 
     name rwrist
     direction -1 -4.4896e-011 -8.83775e-028   
     length 1.82468   
     axis 5.52448e-016 -90 -90   XYZ
    dof ry
    limits (-180.0 0.0)
  end
  begin
     id 28
     name rhand
     direction -1 -4.48996e-011 -1.76755e-027   
     length 0.617996   
     axis 1.12785e-015 -90 -90   XYZ
    dof rx rz
    limits (-90.0 90.0)
           (-45.0 45.0)
  end
  begin
     id 29
     name rfingers
     direction -1 -4.48957e-011 -3.5351e-027   
     length 0.498244   
     axis 2.2557e-015 -90 -90   XYZ
    dof rx
    limits (0.0 90.0)
  end
  begin
     id 30
     name rthumb
     direction -0.707107 -6.34931e-011 0.707107   
     length 0.715382   
     axis -90 -45 -2.85299e-015   XYZ
    dof rx rz
    limits (-45.0 45.0)
           (-45.0 45.0)
  end
:hierarchy
  begin
    root lhipjoint rhipjoint lowerback
    lhipjoint lfemur
    lfemur ltibia
    ltibia lfoot
    lfoot ltoes
    rhipjoint rfemur
    rfemur rtibia
    rtibia rfoot
    rfoot rtoes
    lowerback upperback
    upperback thorax
    thorax lowerneck lclavicle rclavicle
    lowerneck upperneck
    upperneck head
    lclavicle lhumerus
    lhumerus lradius
    lradius lwrist
    lwrist lhand lthumb
    lhand lfingers
    rclavicle rhumerus
    rhumerus rradius
    rradius rwrist
    rwrist rhand rthumb
    rhand rfingers
  end

#!OML:ASF H:\ManfredETheater\Project 1\Capture day 2\Session 1\Male1.ASF
:FULLY-SPECIFIED
:DEGREES
113
root -0.339765 18.6204 15.1062 7.37443 5.59017 -3.1076
lowerback 2.5523 -0.132968 2.36963
upperback -4.25712 0.117706 3.11316
thorax -5.85471 0.0327439 1.90004
lowerneck -22.0614 -1.27766 -1.94226
upperneck 18.4928 -0.352334 -3.28715
head 9.48411 -0.696146 -0.879472
rclavicle 9.24038e-015 -2.3059e-014
rhumerus -38.405 -4.25583 -80.5464
rradius 47.3209
rwrist 1.20623
rhand -33.4752 -4.54638
rfingers 7.12502
rthumb -6.67294 -34.4212
lclavicle 9.24038e-015 -2.3059e-014
lhumerus -44.2642 -0.078532 88.657
lradius 54.6549
lwrist -5.83444
lhand -18.1132 -2.0484
lfingers 7.12502
lthumb 8.16106 27.774
rfemur -10.7555 0.657487 26.1634
rtibia 32.9798
rfoot -6.32926 -2.94275
rtoes -3.9807
lfemur -7.2309 -4.78918 -18.657
ltibia 34.3025
lfoot -4.01655 -5.655
ltoes -17.1202
114
root -0.32839 18.611 15.2008 7.59783 5.47502 -3.06142
lowerback 2.60982 -0.123503 2.34961
upperback -4.21584 0.130708 3.12539
thorax -5.84445 0.0403833 1.92286
lowerneck -21.9475 -1.23505 -1.8549
upperneck 18.2847 -0.318148 -3.35164
head 9.39069 -0.677404 -0.907967
rclavicle -4.85159e-015 1.35174e-014
rhumerus -38.4259 -4.08467 -80.6422
rradius 47.7636
rwrist 1.09942
rhand -33.326 -4.61373
rfingers 7.12502
rthumb -6.52891 -34.4931
lclavicle -4.85159e-015 1.35174e-014
lhumerus -44.1339 0.0164955 88.6238
lradius 54.5351
lwrist -5.59483
lhand -18.1306 -1.83714
lfingers 7.12502
lthumb 8.14431 27.9859
rfemur -10.7795 0.539902 26.0858
rtibia 33.2112
rfoot -6.51722 -2.79577
rtoes -4.10239
lfemur -7.16439 -4.71432 -18.7342
ltibia 34.3148
lfoot -3.81954 -5.68858
ltoes -17.7545
115
root -0.319573 18.6002 15.2964 7.81879 5.35717 -3.0387
lowerback 2.66517 -0.0974868 2.33236
upperback -4.17685 0.166146 3.13934
thorax -5.83576 0.0590657 1.9442
lowerneck -21.8765 -1.22418 -1.81945
upperneck 18.1469 -0.3175 -3.37027
head 9.32968 -0.674024 -0.917977
rclavicle 6.16232e-015 -2.38542e-015
rhumerus -38.4507 -3.90424 -80.7478
rradius 48.0798
rwrist 1.11054
rhand -33.2877 -4.37046
rfingers 7.12502
rthumb -6.492 -34.251
lclavicle 6.16232e-015 -2.38542e-015
lhumerus -43.9874 0.0790493 88.5963
lradius 54.4298
lwrist -5.37744
lhand -18.2109 -1.75563
lfingers 7.12502
lthumb 8.06674 28.0704
rfemur -10.8092 0.536398 26.0569
rtibia 33.4824
rfoot -6.73919 -2.76429
rtoes -3.99474
lfemur -7.10356 -4.61671 -18.7766
ltibia 34.335
lfoot -3.68328 -5.75445
ltoes -18.6346
116
root -0.309137 18.5872 15.3895 8.04203 5.27105 -3.01332
lowerback 2.75852 -0.0953922 2.32942
upperback -4.16107 0.172637 3.14628
thorax -5.87293 0.0624374 1.95303
lowerneck -21.7431 -1.18255 -1.74274
upperneck 17.9762 -0.29388 -3.37622
head 9.24626 -0.654529 -0.926114
rclavicle 7.57867e-016 -6.36111e-015
rhumerus -38.518 -3.64914 -80.8668
rradius 48.4202
rwrist 1.0199
rhand -33.2088 -4.31566
rfingers 7.12502
rthumb -6.41583 -34.1985
lclavicle 7.57867e-016 -6.36111e-015
lhumerus -43.8595 0.151555 88.5368
lradius 54.3433
lwrist -5.21796
lhand -18.3136 -1.80721
lfingers 7.12502
lthumb 7.96764 28.0226
rfemur -10.886 0.462163 26.0145
rtibia 33.8285
rfoot -7.00319 -2.70472
rtoes -3.90135
lfemur -7.05825 -4.57908 -18.8208
ltibia 34.368
lfoot -3.55204 -5.8589
ltoes -19.9176
117
root -0.299587 18.578 15.4867 8.28862 5.17302 -2.93578
lowerback 2.78184 -0.0530212 2.24828
upperback -4.08824 0.223224 3.15446
thorax -5.81041 0.0914442 2.00222
lowerneck -21.741 -1.18768 -1.71099
upperneck 17.8005 -0.306615 -3.42256
head 9.18437 -0.660884 -0.947248
rclavicle 6.85807e-015 -2.54444e-014
rhumerus -38.4623 -3.51808 -80.8811
rradius 48.6897
rwrist 1.06447
rhand -33.1495 -4.35411
rfingers 7.12502
rthumb -6.35859 -34.2387
lclavicle 6.85807e-015 -2.54444e-014
lhumerus -43.5889 0.155743 88.5688
lradius 54.2713
lwrist -5.14716
lhand -18.3345 -1.69821
lfingers 7.12502
lthumb 7.94746 28.1324
rfemur -11.0025 0.427359 25.9121
rtibia 34.2679
rfoot -7.31714 -2.65043
rtoes -3.51696
lfemur -7.1259 -4.76166 -18.9106
ltibia 34.4095
lfoot -3.26021 -5.8414
ltoes -19.4012
118
root -0.289443 18.5598 15.5826 8.51308 5.11286 -2.81067
lowerback 2.80569 -0.0567451 2.10967
upperback -4.02442 0.20885 3.15647
thorax -5.75663 0.0904468 2.08243
lowerneck -21.7063 -1.15796 -1.70016
upperneck 17.6857 -0.281937 -3.38839
head 9.13842 -0.642587 -0.932196
rclavicle 2.23633e-015 -2.62396e-014
rhumerus -38.4739 -3.28718 -80.9575
rradius 48.9483
rwrist 1.05117
rhand -33.1464 -4.15905
rfingers 7.12502
rthumb -6.35551 -34.0437
lclavicle 2.23633e-015 -2.62396e-014
lhumerus -43.397 0.234322 88.5526
lradius 54.2979
lwrist -5.0907
lhand -18.3849 -1.5671
lfingers 7.12502
lthumb 7.89882 28.2653
rfemur -11.1703 0.253874 25.7547
rtibia 34.8375
rfoot -7.64655 -2.52997
rtoes -3.34195
lfemur -7.07607 -4.82464 -19.0698
ltibia 34.459
lfoot -3.20338 -5.90876
ltoes -20.4232
119
root -0.277046 18.5358 15.6735 8.74797 5.04917 -2.65716
lowerback 2.88634 -0.0595825 1.98496
upperback -3.9788 0.198073 3.13026
thorax -5.75449 0.0897512 2.12574
lowerneck -21.6925 -1.12123 -1.64468
upperneck 17.5981 -0.254374 -3.3806
head 9.10548 -0.623493 -0.933656
rclavicle 3.2054e-015 -7.95139e-016
rhumerus -38.4378 -3.06914 -81.0213
rradius 49.1064
rwrist 1.12634
rhand -33.0543 -4.05853
rfingers 7.12502
rthumb -6.26664 -33.9458
lclavicle 3.2054e-015 -7.95139e-016
lhumerus -43.1907 0.252321 88.5254
lradius 54.3091
lwrist -5.03887
lhand -18.4213 -1.54972
lfingers 7.12502
lthumb 7.8637 28.284
rfemur -11.4252 0.033413 25.5551
rtibia 35.5434
rfoot -7.95601 -2.34951
rtoes -3.9217
lfemur -7.0126 -4.86855 -19.2773
ltibia 34.5341
lfoot -3.30886 -5.97995
ltoes -21.8922
